<?xml version="1.0" encoding="UTF-8" standalone="no"?>
<!-- Created with Inkscape (http://www.inkscape.org/) -->

<svg
   xmlns:dc="http://purl.org/dc/elements/1.1/"
   xmlns:cc="http://creativecommons.org/ns#"
   xmlns:rdf="http://www.w3.org/1999/02/22-rdf-syntax-ns#"
   xmlns:svg="http://www.w3.org/2000/svg"
   xmlns="http://www.w3.org/2000/svg"
   xmlns:sodipodi="http://sodipodi.sourceforge.net/DTD/sodipodi-0.dtd"
   xmlns:inkscape="http://www.inkscape.org/namespaces/inkscape"
   width="500"
   height="500"
   viewBox="0 0 132.29166 132.29167"
   version="1.1"
   id="svg8"
   inkscape:version="0.92.2 (5c3e80d, 2017-08-06)"
   sodipodi:docname="gpu-b.svg"
   enable-background="new">
  <sodipodi:namedview
     id="base"
     pagecolor="#ffffff"
     bordercolor="#666666"
     borderopacity="1.0"
     inkscape:pageopacity="0.0"
     inkscape:pageshadow="2"
     inkscape:zoom="2"
     inkscape:cx="247.86419"
     inkscape:cy="225.14001"
     inkscape:document-units="mm"
     inkscape:current-layer="layer1"
     showgrid="false"
     units="px"
     inkscape:window-width="1920"
     inkscape:window-height="1017"
     inkscape:window-x="1912"
     inkscape:window-y="-8"
     inkscape:window-maximized="1"
     objecttolerance="2" />
  <metadata
     id="metadata5">
    <rdf:RDF>
      <cc:Work
         rdf:about="">
        <dc:format>image/svg+xml</dc:format>
        <dc:type
           rdf:resource="http://purl.org/dc/dcmitype/StillImage" />
        <dc:title></dc:title>
      </cc:Work>
    </rdf:RDF>
  </metadata>
  <g
     inkscape:label="Ebene 1"
     inkscape:groupmode="layer"
     id="layer1"
     transform="translate(0,-164.70832)"
     style="opacity:1">
    <g
       id="g1040"
       transform="matrix(1.075323,0,0,1.075323,-13.486962,-24.277983)">
      <g
         id="g1020">
        <rect
           style="opacity:1;fill:#999999;fill-opacity:1;stroke:none;stroke-width:0;stroke-linecap:butt;stroke-linejoin:round;stroke-miterlimit:4;stroke-dasharray:none;stroke-opacity:1"
           id="rect1014"
           width="0.92604166"
           height="55.033333"
           x="20.769791"
           y="213.52394" />
        <rect
           y="-21.695833"
           x="213.52394"
           height="8.2881727"
           width="0.92604166"
           id="rect1016"
           style="opacity:1;fill:#999999;fill-opacity:1;stroke:none;stroke-width:0;stroke-linecap:butt;stroke-linejoin:round;stroke-miterlimit:4;stroke-dasharray:none;stroke-opacity:1"
           transform="rotate(90)" />
      </g>
      <g
         transform="matrix(0.89772729,0,0,0.7596154,-97.975021,55.961691)"
         id="g1031">
        <rect
           style="opacity:1;fill:#999999;fill-opacity:1;stroke:none;stroke-width:0;stroke-linecap:butt;stroke-linejoin:round;stroke-miterlimit:4;stroke-dasharray:none;stroke-opacity:1"
           id="rect1022"
           width="2.9934187"
           height="13.002663"
           x="129.29825"
           y="241.20079" />
        <rect
           style="opacity:1;fill:#999999;fill-opacity:1;stroke:none;stroke-width:0;stroke-linecap:butt;stroke-linejoin:round;stroke-miterlimit:4;stroke-dasharray:none;stroke-opacity:1"
           id="rect1024"
           width="2.2918353"
           height="1.8708868"
           x="129.99983"
           y="237.97351" />
        <rect
           y="255.55984"
           x="129.99983"
           height="1.8708868"
           width="2.2918353"
           id="rect1026"
           style="opacity:1;fill:#999999;fill-opacity:1;stroke:none;stroke-width:0;stroke-linecap:butt;stroke-linejoin:round;stroke-miterlimit:4;stroke-dasharray:none;stroke-opacity:1" />
      </g>
    </g>
    <path
       style="opacity:1;fill:#414141;fill-opacity:1;stroke:none;stroke-width:0;stroke-linecap:butt;stroke-linejoin:round;stroke-miterlimit:4;stroke-dasharray:none;stroke-opacity:1"
       d="m 9.843025,202.76794 v 43.27622 5.4787 2.88192 h 4.95577 v -2.88192 h 8.329164 v 2.88689 h 2.716003 v -2.88689 h 1.911237 v 5.91487 h 5.278339 v -4.19704 a 0.56902501,0.75589069 0 0 1 0.568967,-0.75608 0.56902501,0.75589069 0 0 1 0.569297,0.75608 v 4.19704 h 28.8252 v -4.49013 a 0.80164018,1.0648957 0 0 1 0.801123,-1.06442 0.80164018,1.0648957 0 0 1 0.801786,1.06442 v 2.82032 h 3.731067 l 0.583539,-1.25683 v -1.35187 h -2.061591 v -1.63636 h 9.106442 7.856901 39.084151 V 202.76794 H 83.816269 75.959368 Z"
       id="rect1012"
       inkscape:connector-curvature="0" />
    <g
       id="g1106"
       transform="matrix(1.075323,0,0,1.075323,-13.486962,-24.277983)">
      <rect
         y="259.65244"
         x="38.633808"
         height="1.8942728"
         width="4.3731976"
         id="rect1098"
         style="opacity:1;fill:#ffd42a;fill-opacity:1;stroke:none;stroke-width:0;stroke-linecap:butt;stroke-linejoin:round;stroke-miterlimit:4;stroke-dasharray:none;stroke-opacity:1" />
      <rect
         style="opacity:1;fill:#ffd42a;fill-opacity:1;stroke:none;stroke-width:0;stroke-linecap:butt;stroke-linejoin:round;stroke-miterlimit:4;stroke-dasharray:none;stroke-opacity:1"
         id="rect1100"
         width="26.291803"
         height="1.8942728"
         x="44.56871"
         y="259.65244" />
    </g>
    <g
       id="g1780"
       transform="matrix(0.64087146,0,0,0.64087146,-0.01751322,57.466555)">
      <rect
         y="227.24709"
         x="177.03995"
         height="7.2141275"
         width="11.539715"
         id="rect1108"
         style="opacity:1;fill:#1a1a1a;fill-opacity:1;stroke:none;stroke-width:0;stroke-linecap:butt;stroke-linejoin:round;stroke-miterlimit:4;stroke-dasharray:none;stroke-opacity:1" />
      <rect
         style="opacity:1;fill:#1a1a1a;fill-opacity:1;stroke:none;stroke-width:0;stroke-linecap:butt;stroke-linejoin:round;stroke-miterlimit:4;stroke-dasharray:none;stroke-opacity:1"
         id="rect1715"
         width="11.539715"
         height="7.2141275"
         x="163.64583"
         y="227.24709" />
    </g>
    <g
       id="g3088">
      <g
         transform="matrix(0,0.64087146,-1.3176278,0,355.29404,174.10662)"
         id="g2976">
        <rect
           style="opacity:0.30899999;fill:#666666;fill-opacity:1;stroke:none;stroke-width:0;stroke-linecap:butt;stroke-linejoin:round;stroke-miterlimit:4;stroke-dasharray:none;stroke-opacity:1"
           id="rect1102"
           width="70.689209"
           height="70.291519"
           x="43.078453"
           y="179.24207" />
        <path
           style="opacity:1;fill:#828282;fill-opacity:1;stroke:none;stroke-width:0;stroke-linecap:butt;stroke-linejoin:round;stroke-miterlimit:4;stroke-dasharray:none;stroke-opacity:1"
           d="M 162.81641,54.931641 V 320.59961 h 2.36328 V 54.931641 Z m 5.29687,0 V 320.59961 h 2.36328 V 54.931641 Z m 5.29492,0 V 320.59961 h 2.36524 V 54.931641 Z m 5.29688,0 V 320.59961 h 2.36328 V 54.931641 Z m 5.29492,0 V 320.59961 h 2.36523 V 54.931641 Z m 5.29688,0 V 320.59961 h 2.36523 V 54.931641 Z m 5.29687,0 V 320.59961 h 2.36328 V 54.931641 Z m 5.29492,0 V 320.59961 h 2.36524 V 54.931641 Z m 5.29688,0 V 320.59961 h 2.36328 V 54.931641 Z m 5.29687,0 V 320.59961 h 2.36328 V 54.931641 Z m 5.29492,0 V 320.59961 h 2.36524 V 54.931641 Z m 5.29688,0 V 320.59961 h 2.36328 V 54.931641 Z m 5.29492,0 V 320.59961 h 2.36524 V 54.931641 Z m 5.29688,0 V 320.59961 h 2.36523 V 54.931641 Z m 5.29687,0 V 320.59961 h 2.36328 V 54.931641 Z m 5.29492,0 V 320.59961 h 2.36524 V 54.931641 Z m 5.29688,0 V 320.59961 h 2.36523 V 54.931641 Z m 5.29687,0 V 320.59961 h 2.36328 V 54.931641 Z m 5.29492,0 V 320.59961 h 2.36524 V 54.931641 Z m 5.29688,0 V 320.59961 h 2.36328 V 54.931641 Z m 5.29492,0 V 320.59961 h 2.36524 V 54.931641 Z m 5.29688,0 V 320.59961 h 2.36523 V 54.931641 Z m 5.29687,0 V 320.59961 h 2.36328 V 54.931641 Z m 5.29492,0 V 320.59961 h 2.36524 V 54.931641 Z m 5.29688,0 V 320.59961 h 2.36523 V 54.931641 Z m 5.29687,0 V 320.59961 h 2.36328 V 54.931641 Z m 5.29492,0 V 320.59961 h 2.36524 V 54.931641 Z m 5.29688,0 V 320.59961 h 2.36328 V 54.931641 Z m 5.29688,0 V 320.59961 h 2.36328 V 54.931641 Z m 5.29492,0 V 320.59961 h 2.36523 V 54.931641 Z m 5.29687,0 V 320.59961 h 2.36328 V 54.931641 Z m 5.29492,0 V 320.59961 h 2.36524 V 54.931641 Z m 5.29688,0 V 320.59961 h 2.36523 V 54.931641 Z m 5.29687,0 V 320.59961 h 2.36328 V 54.931641 Z m 5.29493,0 V 320.59961 H 345.25 V 54.931641 Z m 5.29687,0 V 320.59961 h 2.36524 V 54.931641 Z m 5.29688,0 V 320.59961 h 2.36328 V 54.931641 Z m 5.29492,0 V 320.59961 h 2.36523 V 54.931641 Z m 5.29687,0 V 320.59961 h 2.36328 V 54.931641 Z m 5.29492,0 V 320.59961 h 2.36524 V 54.931641 Z m 5.29688,0 V 320.59961 h 2.36523 V 54.931641 Z m 5.29687,0 V 320.59961 h 2.36329 V 54.931641 Z m 5.29493,0 V 320.59961 h 2.36523 V 54.931641 Z m 5.29687,0 V 320.59961 h 2.36524 V 54.931641 Z m 5.29688,0 V 320.59961 h 2.36328 V 54.931641 Z m 5.29492,0 V 320.59961 h 2.36523 V 54.931641 Z m 5.29687,0 V 320.59961 h 2.36328 V 54.931641 Z m 5.29688,0 V 320.59961 h 2.36328 V 54.931641 Z m 5.29492,0 V 320.59961 h 2.36523 V 54.931641 Z m 5.29687,0 V 320.59961 h 2.36329 V 54.931641 Z m 5.29493,0 V 320.59961 h 2.36523 V 54.931641 Z"
           transform="matrix(0.26458333,0,0,0.26458333,0,164.70832)"
           id="rect1110"
           inkscape:connector-curvature="0" />
      </g>
      <g
         transform="matrix(0.64087146,0,0,0.64087146,-0.01751322,86.970682)"
         id="g2513">
        <g
           id="g1392"
           style="fill:#333333"
           transform="matrix(2.1290135,0,0,2.1290135,46.411507,-386.31138)">
          <path
             inkscape:connector-curvature="0"
             id="rect1270"
             transform="matrix(0.26458333,0,0,0.26458333,0,164.70832)"
             d="m 60.552734,386.81641 a 53.146658,53.146658 0 0 1 -1.091796,42.56445 74.818016,76.355271 35.000096 0 0 -19.003907,-39.69922 l -4.140625,0.73047 a 56.692913,56.692913 0 0 0 -12.978515,7.13867 53.146658,53.146658 0 0 1 26.523437,33.31055 76.355271,74.818016 85.000095 0 0 -40.0761718,-18.19727 l -2.7011718,3.22071 A 56.692913,56.692913 0 0 0 1.7304688,429.69531 53.146658,53.146658 0 0 1 43.460938,438.16211 76.355267,74.818012 45.000096 0 0 1.0625,449.98438 v 4.20507 A 56.69291,56.69291 0 0 0 5.8398438,468.20898 53.146654,53.146654 0 0 1 43.25,447.87305 76.355271,74.818016 5.0000975 0 0 18.369141,484.17969 l 2.703125,3.2207 a 56.692913,56.692913 0 0 0 12.671875,7.67188 53.146658,53.146658 0 0 1 15.585937,-39.62696 74.818016,76.355271 55.000097 0 0 4.279297,43.80664 L 57.75,499.98047 a 56.692913,56.692913 0 0 0 14.636719,-2.26758 53.146658,53.146658 0 0 1 -13.533203,-40.375 74.818016,76.355271 15.000095 0 0 31.4375,30.80859 l 3.640625,-2.10351 a 56.692913,56.692913 0 0 0 9.753909,-11.14649 53.146658,53.146658 0 0 1 -36.318362,-22.23046 76.355271,74.818016 65.000095 0 0 43.884762,3.39257 l 1.4375,-3.95117 a 56.692913,56.692913 0 0 0 0.30664,-14.80859 53.146658,53.146658 0 0 1 -42.107418,6.3164 76.355267,74.818012 25.000096 0 0 35.794918,-25.60937 l -1.4375,-3.95117 a 56.69291,56.69291 0 0 0 -9.283199,-11.54102 53.146654,53.146654 0 0 1 -28.199219,31.90625 74.818016,76.355271 75.000097 0 0 10.960937,-42.6289 l -3.640625,-2.10157 a 56.692913,56.692913 0 0 0 -14.53125,-2.87304 z"
             style="opacity:1;fill:#333333;fill-opacity:1;stroke:none;stroke-width:0;stroke-linecap:butt;stroke-linejoin:round;stroke-miterlimit:4;stroke-dasharray:none;stroke-opacity:1" />
          <circle
             r="4.5"
             cy="282"
             cx="15"
             id="path1388"
             style="opacity:1;fill:#333333;fill-opacity:1;stroke:none;stroke-width:0;stroke-linecap:butt;stroke-linejoin:round;stroke-miterlimit:4;stroke-dasharray:none;stroke-opacity:1" />
        </g>
        <g
           style="fill:#333333"
           id="g2121"
           transform="matrix(2.1290135,0,0,2.1290135,117.65685,-386.31138)">
          <path
             style="opacity:1;fill:#333333;fill-opacity:1;stroke:none;stroke-width:0;stroke-linecap:butt;stroke-linejoin:round;stroke-miterlimit:4;stroke-dasharray:none;stroke-opacity:1"
             d="m 60.552734,386.81641 a 53.146658,53.146658 0 0 1 -1.091796,42.56445 74.818016,76.355271 35.000096 0 0 -19.003907,-39.69922 l -4.140625,0.73047 a 56.692913,56.692913 0 0 0 -12.978515,7.13867 53.146658,53.146658 0 0 1 26.523437,33.31055 76.355271,74.818016 85.000095 0 0 -40.0761718,-18.19727 l -2.7011718,3.22071 A 56.692913,56.692913 0 0 0 1.7304688,429.69531 53.146658,53.146658 0 0 1 43.460938,438.16211 76.355267,74.818012 45.000096 0 0 1.0625,449.98438 v 4.20507 A 56.69291,56.69291 0 0 0 5.8398438,468.20898 53.146654,53.146654 0 0 1 43.25,447.87305 76.355271,74.818016 5.0000975 0 0 18.369141,484.17969 l 2.703125,3.2207 a 56.692913,56.692913 0 0 0 12.671875,7.67188 53.146658,53.146658 0 0 1 15.585937,-39.62696 74.818016,76.355271 55.000097 0 0 4.279297,43.80664 L 57.75,499.98047 a 56.692913,56.692913 0 0 0 14.636719,-2.26758 53.146658,53.146658 0 0 1 -13.533203,-40.375 74.818016,76.355271 15.000095 0 0 31.4375,30.80859 l 3.640625,-2.10351 a 56.692913,56.692913 0 0 0 9.753909,-11.14649 53.146658,53.146658 0 0 1 -36.318362,-22.23046 76.355271,74.818016 65.000095 0 0 43.884762,3.39257 l 1.4375,-3.95117 a 56.692913,56.692913 0 0 0 0.30664,-14.80859 53.146658,53.146658 0 0 1 -42.107418,6.3164 76.355267,74.818012 25.000096 0 0 35.794918,-25.60937 l -1.4375,-3.95117 a 56.69291,56.69291 0 0 0 -9.283199,-11.54102 53.146654,53.146654 0 0 1 -28.199219,31.90625 74.818016,76.355271 75.000097 0 0 10.960937,-42.6289 l -3.640625,-2.10157 a 56.692913,56.692913 0 0 0 -14.53125,-2.87304 z"
             transform="matrix(0.26458333,0,0,0.26458333,0,164.70832)"
             id="path2117"
             inkscape:connector-curvature="0" />
          <circle
             style="opacity:1;fill:#333333;fill-opacity:1;stroke:none;stroke-width:0;stroke-linecap:butt;stroke-linejoin:round;stroke-miterlimit:4;stroke-dasharray:none;stroke-opacity:1"
             id="circle2119"
             cx="15"
             cy="282"
             r="4.5" />
        </g>
      </g>
      <g
         transform="matrix(0.64087146,0,0,0.64087146,-0.01751322,86.970682)"
         id="g2505">
        <circle
           style="opacity:1;fill:#d45500;fill-opacity:1;stroke:none;stroke-width:0;stroke-linecap:butt;stroke-linejoin:round;stroke-miterlimit:4;stroke-dasharray:none;stroke-opacity:1"
           id="path1394"
           cx="78.34671"
           cy="214.07043"
           r="8.5160542" />
        <circle
           r="8.5160542"
           cy="214.07043"
           cx="149.59206"
           id="circle2123"
           style="opacity:1;fill:#d45500;fill-opacity:1;stroke:none;stroke-width:0;stroke-linecap:butt;stroke-linejoin:round;stroke-miterlimit:4;stroke-dasharray:none;stroke-opacity:1" />
      </g>
    </g>
    <path
       style="opacity:1;fill:#1a1a1a;fill-opacity:1;stroke:none;stroke-width:0.16956389px;stroke-linecap:butt;stroke-linejoin:miter;stroke-opacity:1"
       d="m 31.865136,197.20048 -20.347005,3.84533 v 48.0654 H 124.72323 l 6.63783,-6.86767 -3.20416,-18.90306 3.20416,-18.90306 -17.14251,-7.23694 -41.176874,3.84533 z m 18.347345,5.44592 A 21.549004,21.549004 0 0 1 71.761336,224.19525 21.549004,21.549004 0 0 1 50.212481,245.74411 21.549004,21.549004 0 0 1 28.663293,224.19525 21.549004,21.549004 0 0 1 50.212481,202.6464 Z m 45.659054,0 A 21.549004,21.549004 0 0 1 117.42039,224.19525 21.549004,21.549004 0 0 1 95.871535,245.74411 21.549004,21.549004 0 0 1 74.322348,224.19525 21.549004,21.549004 0 0 1 95.871535,202.6464 Z"
       id="path2145"
       inkscape:connector-curvature="0" />
    <g
       id="g3044">
      <g
         transform="translate(-0.37417732)"
         id="g3021">
        <path
           style="fill:#f6821a;fill-opacity:1;stroke:none;stroke-width:0.26458332px;stroke-linecap:butt;stroke-linejoin:miter;stroke-opacity:1"
           d="m 32.241963,199.08563 2.418146,1.91436 11.687713,-0.40302 z"
           id="path3009"
           inkscape:connector-curvature="0"
           sodipodi:nodetypes="cccc" />
        <path
           sodipodi:nodetypes="cccc"
           inkscape:connector-curvature="0"
           id="path3011"
           d="m 114.3582,199.08563 -2.41815,1.91436 -11.68771,-0.40302 z"
           style="fill:#f6821a;fill-opacity:1;stroke:none;stroke-width:0.26458332px;stroke-linecap:butt;stroke-linejoin:miter;stroke-opacity:1" />
        <path
           style="fill:#f6821a;fill-opacity:1;stroke:none;stroke-width:0.26458332px;stroke-linecap:butt;stroke-linejoin:miter;stroke-opacity:1"
           d="m 70.076368,202.64106 -2.768671,1.35893 -11.337361,-2.86866 z"
           id="path3013"
           inkscape:connector-curvature="0"
           sodipodi:nodetypes="cccc" />
        <path
           sodipodi:nodetypes="cccc"
           inkscape:connector-curvature="0"
           id="path3015"
           d="m 76.52379,202.64106 2.768671,1.35893 11.337361,-2.86866 z"
           style="fill:#f6821a;fill-opacity:1;stroke:none;stroke-width:0.26458332px;stroke-linecap:butt;stroke-linejoin:miter;stroke-opacity:1" />
      </g>
      <path
         style="fill:#f6821a;fill-opacity:1;stroke:none;stroke-width:0.26458332px;stroke-linecap:butt;stroke-linejoin:miter;stroke-opacity:1"
         d="m 69.702191,246.48235 -2.768671,-1.35893 -11.337361,2.86866 z"
         id="path3027"
         inkscape:connector-curvature="0"
         sodipodi:nodetypes="cccc" />
      <path
         sodipodi:nodetypes="cccc"
         inkscape:connector-curvature="0"
         id="path3029"
         d="m 76.149613,246.48235 2.768671,-1.35893 11.337361,2.86866 z"
         style="fill:#f6821a;fill-opacity:1;stroke:none;stroke-width:0.26458332px;stroke-linecap:butt;stroke-linejoin:miter;stroke-opacity:1" />
    </g>
    <path
       style="opacity:0.1;fill:#ffffff;fill-opacity:1;stroke:none;stroke-width:0.64087141px;stroke-linecap:butt;stroke-linejoin:miter;stroke-opacity:1"
       d="m 405.20703,125.27734 -122.10156,11.40235 -16.92969,60.10742 a 81.445054,81.445054 0 0 1 5.04883,28.04492 81.445054,81.445054 0 0 1 -30.94336,63.88867 l -8.5293,30.28321 h 77.86914 l 11.77539,-23.86524 a 81.445054,81.445054 0 0 1 -40.49218,-70.30664 81.445054,81.445054 0 0 1 81.44531,-81.44336 81.445054,81.445054 0 0 1 30.89648,6.13086 z"
       transform="matrix(0.26458333,0,0,0.26458333,0,164.70832)"
       id="path3090"
       inkscape:connector-curvature="0" />
  </g>
</svg>
