<?xml version="1.0" encoding="UTF-8" standalone="no"?>
<!-- Created with Inkscape (http://www.inkscape.org/) -->

<svg
   xmlns:dc="http://purl.org/dc/elements/1.1/"
   xmlns:cc="http://creativecommons.org/ns#"
   xmlns:rdf="http://www.w3.org/1999/02/22-rdf-syntax-ns#"
   xmlns:svg="http://www.w3.org/2000/svg"
   xmlns="http://www.w3.org/2000/svg"
   xmlns:sodipodi="http://sodipodi.sourceforge.net/DTD/sodipodi-0.dtd"
   xmlns:inkscape="http://www.inkscape.org/namespaces/inkscape"
   width="500"
   height="500"
   viewBox="0 0 132.29166 132.29167"
   version="1.1"
   id="svg8"
   inkscape:version="0.92.2 (5c3e80d, 2017-08-06)"
   sodipodi:docname="no-img.svg"
   enable-background="new">
  <defs
     id="defs2">
    <filter
       inkscape:collect="always"
       style="color-interpolation-filters:sRGB"
       id="filter2642">
      <feBlend
         inkscape:collect="always"
         mode="darken"
         in2="BackgroundImage"
         id="feBlend2644" />
    </filter>
  </defs>
  <sodipodi:namedview
     id="base"
     pagecolor="#ffffff"
     bordercolor="#666666"
     borderopacity="1.0"
     inkscape:pageopacity="0.0"
     inkscape:pageshadow="2"
     inkscape:zoom="1"
     inkscape:cx="16.17731"
     inkscape:cy="241.96053"
     inkscape:document-units="mm"
     inkscape:current-layer="layer1"
     showgrid="false"
     units="px"
     inkscape:window-width="1920"
     inkscape:window-height="1017"
     inkscape:window-x="3832"
     inkscape:window-y="-8"
     inkscape:window-maximized="1"
     objecttolerance="2" />
  <metadata
     id="metadata5">
    <rdf:RDF>
      <cc:Work
         rdf:about="">
        <dc:format>image/svg+xml</dc:format>
        <dc:type
           rdf:resource="http://purl.org/dc/dcmitype/StillImage" />
        <dc:title />
      </cc:Work>
    </rdf:RDF>
  </metadata>
  <g
     inkscape:label="Ebene 1"
     inkscape:groupmode="layer"
     id="layer1"
     transform="translate(0,-164.70832)"
     style="opacity:1;filter:url(#filter2642)">
    <path
       style="color:#000000;font-style:normal;font-variant:normal;font-weight:normal;font-stretch:normal;font-size:medium;line-height:normal;font-family:sans-serif;font-variant-ligatures:normal;font-variant-position:normal;font-variant-caps:normal;font-variant-numeric:normal;font-variant-alternates:normal;font-feature-settings:normal;text-indent:0;text-align:start;text-decoration:none;text-decoration-line:none;text-decoration-style:solid;text-decoration-color:#000000;letter-spacing:normal;word-spacing:normal;text-transform:none;writing-mode:lr-tb;direction:ltr;text-orientation:mixed;dominant-baseline:auto;baseline-shift:baseline;text-anchor:start;white-space:normal;shape-padding:0;clip-rule:nonzero;display:inline;overflow:visible;visibility:visible;opacity:1;isolation:auto;mix-blend-mode:normal;color-interpolation:sRGB;color-interpolation-filters:linearRGB;solid-color:#000000;solid-opacity:1;vector-effect:none;fill:#646464;fill-opacity:0.78431373;fill-rule:nonzero;stroke:none;stroke-width:5;stroke-linecap:butt;stroke-linejoin:round;stroke-miterlimit:4;stroke-dasharray:none;stroke-dashoffset:0;stroke-opacity:1;color-rendering:auto;image-rendering:auto;shape-rendering:auto;text-rendering:auto;enable-background:accumulate"
       d="m 66.145836,192.12103 c -21.794147,0 -39.495778,17.70163 -39.495778,39.49578 0,21.79414 17.701631,39.49578 39.495778,39.49578 21.794148,0 39.495774,-17.70164 39.495774,-39.49578 0,-21.79415 -17.701626,-39.49578 -39.495774,-39.49578 z m 0,3.17216 c 9.46857,0 18.083483,3.61293 24.545148,9.53583 l -8.049912,8.04991 h -3.727247 l -4.574469,-6.09973 c -0.299565,-0.39935 -0.769644,-0.63439 -1.268865,-0.63443 H 59.640202 c -0.499221,4e-5 -0.9693,0.23508 -1.268865,0.63443 l -4.574469,6.09973 H 39.407554 c -1.097911,0 -2.030839,0.93293 -2.030839,2.03084 v 33.41506 c 0,1.09792 0.932928,2.03117 2.030839,2.03117 h 5.756447 l -5.805628,5.80563 c -5.922915,-6.46167 -9.535826,-15.07624 -9.535826,-24.54482 0,-20.07969 16.24361,-36.32362 36.323289,-36.32362 z m 26.787791,11.7788 c 5.922803,6.46164 9.535823,15.07633 9.535823,24.54482 0,20.07967 -16.243933,36.32329 -36.323614,36.32329 -9.468496,0 -18.082842,-3.61301 -24.54449,-9.53583 l 8.048272,-8.04827 h 43.23319 c 1.097908,0 2.031166,-0.93325 2.031166,-2.03117 v -33.41506 c 0,-1.09791 -0.933258,-2.03084 -2.031166,-2.03084 h -5.756119 z m -32.500302,2.24527 h 11.844044 l 4.560371,6.08071 c 0.297275,0.40711 0.770683,0.65099 1.274774,0.65312 v 0 h 1.356407 l -5.550545,5.55055 c -2.150138,-1.67338 -4.847442,-2.67445 -7.772532,-2.67445 -6.989384,0 -12.689298,5.70023 -12.689298,12.68962 0,2.92512 1.001045,5.62206 2.674451,7.77221 l -7.794499,7.7945 h -7.787622 v -31.13243 h 14.036525 v 0 c 0.508597,0.002 0.987627,-0.24238 1.287561,-0.65313 z m 23.521202,6.73383 h 7.786958 v 31.13242 h -38.91938 l 5.551527,-5.55153 c 2.15014,1.67338 4.847116,2.67413 7.772204,2.67413 6.989386,0 12.689627,-5.69992 12.689627,-12.6893 0,-2.925 -1.001169,-5.6221 -2.674451,-7.77221 l 1.481653,-1.48165 c 0.419659,2.01207 2.221062,3.54593 4.348893,3.54593 2.434072,0 4.441353,-2.00728 4.441353,-4.44135 0,-2.12783 -1.533868,-3.92923 -3.545934,-4.34889 z m -1.962969,4.14758 c 0.719605,0 1.268865,0.54926 1.268864,1.26886 0,0.71961 -0.549259,1.26919 -1.268864,1.26919 -0.719605,0 -1.268864,-0.54958 -1.268864,-1.26919 0,-0.7196 0.549259,-1.26886 1.268864,-1.26886 z m -15.845722,1.901 c 2.062006,0 3.964733,0.65033 5.519396,1.7551 l -13.281108,13.28111 c -1.10475,-1.55466 -1.755426,-3.45708 -1.755426,-5.51907 0,-5.27492 4.242223,-9.51714 9.517138,-9.51714 z m 7.762039,3.99807 c 1.104672,1.55462 1.755099,3.45716 1.755099,5.51907 0,5.27491 -4.242221,9.51714 -9.517138,9.51714 -2.061922,0 -3.964438,-0.65042 -5.519067,-1.7551 z"
       id="path4526"
       inkscape:connector-curvature="0"
       sodipodi:nodetypes="ssssssccccccccssssccsscssccsssscccccccccsscccccccccccccssccssccscssssccsscsscc" />
    <g
       aria-label="No Image"
       style="font-style:normal;font-variant:normal;font-weight:normal;font-stretch:normal;font-size:50.79999924px;line-height:1.25;font-family:Calibri;-inkscape-font-specification:Calibri;letter-spacing:0px;word-spacing:0px;fill:#646464;fill-opacity:0.78431373;stroke:none;stroke-width:0.26458332"
       id="text4570">
      <path
         d="m 31.533815,184.67214 q 0,0.24115 -0.08441,0.40996 -0.07235,0.16881 -0.204983,0.27733 -0.120579,0.10852 -0.277331,0.15676 -0.156751,0.0482 -0.313503,0.0482 h -0.663181 q -0.313504,0 -0.554661,-0.0603 -0.229099,-0.0724 -0.44614,-0.24116 -0.204983,-0.18087 -0.422024,-0.48231 -0.204983,-0.30145 -0.458198,-0.7717 l -4.919597,-8.87457 q -0.385851,-0.6873 -0.783759,-1.43488 -0.385851,-0.75965 -0.72347,-1.47106 h -0.02412 q 0.02412,0.86816 0.03617,1.7725 0.01206,0.90434 0.01206,1.79662 v 9.41717 q 0,0.0844 -0.04823,0.16881 -0.04823,0.0724 -0.16881,0.12058 -0.10852,0.0362 -0.301446,0.0603 -0.180867,0.0362 -0.470255,0.0362 -0.289388,0 -0.482314,-0.0362 -0.180867,-0.0241 -0.289388,-0.0603 -0.10852,-0.0482 -0.156752,-0.12058 -0.04823,-0.0844 -0.04823,-0.16881 v -14.39706 q 0,-0.48231 0.265272,-0.68729 0.265273,-0.20499 0.578776,-0.20499 h 0.988743 q 0.349677,0 0.578776,0.0603 0.241157,0.0603 0.422024,0.20499 0.192926,0.13263 0.361735,0.38585 0.180868,0.24115 0.385851,0.61495 l 3.786161,6.84885 q 0.349677,0.62701 0.675239,1.2299 0.325561,0.59083 0.627007,1.16961 0.301446,0.57877 0.590834,1.14549 0.301446,0.55466 0.590834,1.12138 h 0.01206 q -0.02412,-0.95257 -0.03617,-1.97748 0,-1.03698 0,-1.98955 v -8.4646 q 0,-0.0844 0.04823,-0.15675 0.04823,-0.0724 0.156752,-0.12058 0.120578,-0.0603 0.301446,-0.0844 0.192925,-0.0241 0.494371,-0.0241 0.265272,0 0.458198,0.0241 0.192925,0.0241 0.301445,0.0844 0.108521,0.0482 0.156752,0.12058 0.04823,0.0724 0.04823,0.15675 z"
         style="font-size:24.69444847px;fill:#646464;fill-opacity:0.78431373;stroke-width:0.26458332"
         id="path825" />
      <path
         d="m 45.569136,179.68019 q 0,1.32637 -0.349678,2.44774 -0.349677,1.10933 -1.049031,1.9172 -0.687297,0.80788 -1.736329,1.26607 -1.036974,0.44614 -2.411567,0.44614 -1.33842,0 -2.33922,-0.39791 -0.988743,-0.3979 -1.651924,-1.15755 -0.663181,-0.75964 -0.988742,-1.84485 -0.325562,-1.0852 -0.325562,-2.4598 0,-1.32636 0.33762,-2.43568 0.349677,-1.12138 1.036973,-1.92925 0.699355,-0.80788 1.736329,-1.25402 1.036974,-0.44614 2.423625,-0.44614 1.33842,0 2.327162,0.39791 1.000801,0.39791 1.663982,1.15755 0.663181,0.75965 0.988742,1.84485 0.33762,1.08521 0.33762,2.44774 z m -2.098064,0.13264 q 0,-0.88022 -0.168809,-1.66398 -0.156752,-0.78376 -0.530545,-1.3746 -0.373793,-0.59083 -1.012859,-0.92845 -0.639065,-0.34968 -1.591634,-0.34968 -0.880222,0 -1.519287,0.31351 -0.627008,0.3135 -1.036974,0.89228 -0.409967,0.56672 -0.61495,1.35048 -0.192925,0.78375 -0.192925,1.71221 0,0.89228 0.156752,1.67604 0.168809,0.78376 0.542602,1.37459 0.385851,0.57878 1.024916,0.92845 0.639066,0.33762 1.591635,0.33762 0.868164,0 1.507229,-0.3135 0.639066,-0.3135 1.049032,-0.88022 0.409966,-0.56672 0.602892,-1.35048 0.192925,-0.78376 0.192925,-1.72427 z"
         style="font-size:24.69444847px;fill:#646464;fill-opacity:0.78431373;stroke-width:0.26458332"
         id="path827" />
      <path
         d="m 56.397074,185.21474 q 0,0.0965 -0.04823,0.16881 -0.04823,0.0724 -0.168809,0.12058 -0.120579,0.0362 -0.325562,0.0603 -0.192925,0.0362 -0.494371,0.0362 -0.289388,0 -0.494372,-0.0362 -0.204983,-0.0241 -0.325561,-0.0603 -0.120579,-0.0482 -0.16881,-0.12058 -0.04823,-0.0724 -0.04823,-0.16881 v -14.97583 q 0,-0.0965 0.04823,-0.16881 0.06029,-0.0724 0.180868,-0.10852 0.132636,-0.0482 0.325561,-0.0724 0.204983,-0.0362 0.482314,-0.0362 0.301446,0 0.494371,0.0362 0.204983,0.0241 0.325562,0.0724 0.120578,0.0362 0.168809,0.10852 0.04823,0.0724 0.04823,0.16881 z"
         style="font-size:24.69444847px;fill:#646464;fill-opacity:0.78431373;stroke-width:0.26458332"
         id="path829" />
      <path
         d="m 76.413082,185.2268 q 0,0.0965 -0.04823,0.16881 -0.04823,0.0603 -0.156752,0.10852 -0.108521,0.0482 -0.301446,0.0724 -0.192926,0.0241 -0.482314,0.0241 -0.301446,0 -0.494371,-0.0241 -0.192925,-0.0241 -0.313504,-0.0724 -0.10852,-0.0482 -0.156752,-0.10852 -0.04823,-0.0724 -0.04823,-0.16881 v -6.59564 q 0,-0.68729 -0.120578,-1.25401 -0.120579,-0.56672 -0.385851,-0.97669 -0.265272,-0.40996 -0.675239,-0.62701 -0.409966,-0.21704 -0.964627,-0.21704 -0.687296,0 -1.386651,0.53055 -0.687297,0.53054 -1.519287,1.55546 v 7.58438 q 0,0.0965 -0.04823,0.16881 -0.04823,0.0603 -0.168809,0.10852 -0.108521,0.0482 -0.301446,0.0724 -0.192926,0.0241 -0.482314,0.0241 -0.27733,0 -0.482313,-0.0241 -0.192926,-0.0241 -0.313504,-0.0724 -0.10852,-0.0482 -0.156752,-0.10852 -0.03617,-0.0724 -0.03617,-0.16881 v -6.59564 q 0,-0.68729 -0.132636,-1.25401 -0.132637,-0.56672 -0.397909,-0.97669 -0.265272,-0.40996 -0.675239,-0.62701 -0.397908,-0.21704 -0.952569,-0.21704 -0.687297,0 -1.386651,0.53055 -0.699355,0.53054 -1.519287,1.55546 v 7.58438 q 0,0.0965 -0.04823,0.16881 -0.04823,0.0603 -0.156752,0.10852 -0.10852,0.0482 -0.301446,0.0724 -0.192925,0.0241 -0.494371,0.0241 -0.289388,0 -0.482313,-0.0241 -0.192926,-0.0241 -0.313504,-0.0724 -0.108521,-0.0482 -0.156752,-0.10852 -0.03617,-0.0724 -0.03617,-0.16881 v -10.85205 q 0,-0.0965 0.03617,-0.15676 0.03617,-0.0723 0.144694,-0.12057 0.108521,-0.0603 0.27733,-0.0724 0.16881,-0.0241 0.44614,-0.0241 0.265273,0 0.434082,0.0241 0.180868,0.0121 0.277331,0.0724 0.09646,0.0482 0.132636,0.12057 0.04823,0.0603 0.04823,0.15676 v 1.43488 q 0.916396,-1.02492 1.772502,-1.49517 0.868164,-0.48232 1.748386,-0.48232 0.675239,0 1.205784,0.15675 0.542603,0.15676 0.952569,0.44614 0.409966,0.27733 0.699355,0.67524 0.289388,0.38585 0.482313,0.86817 0.542603,-0.59084 1.024916,-1.0008 0.494371,-0.40997 0.940511,-0.66318 0.458198,-0.25322 0.880222,-0.36174 0.434082,-0.12058 0.868164,-0.12058 1.049032,0 1.760445,0.3738 0.711412,0.36173 1.145494,0.97668 0.44614,0.61495 0.627007,1.44694 0.192926,0.81993 0.192926,1.73633 z"
         style="font-size:24.69444847px;fill:#646464;fill-opacity:0.78431373;stroke-width:0.26458332"
         id="path831" />
      <path
         d="m 88.217699,185.23886 q 0,0.14469 -0.09646,0.21704 -0.09646,0.0723 -0.265273,0.10852 -0.168809,0.0362 -0.494371,0.0362 -0.313504,0 -0.506429,-0.0362 -0.180868,-0.0362 -0.265272,-0.10852 -0.08441,-0.0724 -0.08441,-0.21704 v -1.08521 q -0.711413,0.75964 -1.591635,1.18167 -0.868164,0.42202 -1.844849,0.42202 -0.856106,0 -1.55546,-0.2291 -0.687297,-0.21704 -1.181668,-0.63906 -0.482314,-0.42203 -0.759644,-1.03698 -0.265273,-0.61494 -0.265273,-1.3987 0,-0.9164 0.373793,-1.59164 0.373793,-0.67524 1.073148,-1.12138 0.699354,-0.44614 1.712213,-0.66318 1.012858,-0.2291 2.278931,-0.2291 h 1.495171 v -0.84405 q 0,-0.627 -0.132636,-1.10932 -0.132636,-0.48231 -0.434082,-0.79581 -0.289388,-0.32557 -0.759644,-0.48232 -0.470255,-0.16881 -1.157552,-0.16881 -0.735528,0 -1.326362,0.18087 -0.578776,0.16881 -1.024916,0.38585 -0.434082,0.20498 -0.735528,0.38585 -0.289388,0.16881 -0.434082,0.16881 -0.09646,0 -0.16881,-0.0482 -0.07235,-0.0482 -0.132636,-0.14469 -0.04823,-0.0965 -0.07235,-0.24116 -0.02412,-0.15675 -0.02412,-0.33762 0,-0.30145 0.03617,-0.47026 0.04823,-0.18086 0.204983,-0.33761 0.16881,-0.15676 0.566718,-0.36174 0.397909,-0.21704 0.916396,-0.38585 0.518487,-0.18087 1.133436,-0.28939 0.61495,-0.12058 1.241958,-0.12058 1.16961,0 1.989543,0.26528 0.819932,0.26527 1.326362,0.78375 0.506429,0.50643 0.735528,1.26608 0.229098,0.75964 0.229098,1.7725 z m -1.977485,-4.95577 h -1.700155 q -0.819932,0 -1.422824,0.14469 -0.602892,0.13264 -1.000801,0.40997 -0.397908,0.26527 -0.590834,0.65112 -0.180867,0.37379 -0.180867,0.86816 0,0.84405 0.530545,1.35048 0.542602,0.49437 1.507229,0.49437 0.783759,0 1.44694,-0.39791 0.675239,-0.39791 1.410767,-1.21784 z"
         style="font-size:24.69444847px;fill:#646464;fill-opacity:0.78431373;stroke-width:0.26458332"
         id="path833" />
      <path
         d="m 100.92666,174.86912 q 0,0.42202 -0.12058,0.61495 -0.10852,0.18086 -0.28939,0.18086 h -1.555457 q 0.422024,0.43409 0.590834,0.96463 0.16881,0.51849 0.16881,1.08521 0,0.94051 -0.301446,1.66398 -0.301446,0.72347 -0.868165,1.2299 -0.55466,0.49437 -1.326362,0.75964 -0.771701,0.26527 -1.712212,0.26527 -0.663181,0 -1.266073,-0.16881 -0.590834,-0.18086 -0.916396,-0.44614 -0.217041,0.21704 -0.361735,0.49437 -0.132636,0.27733 -0.132636,0.63907 0,0.42202 0.385851,0.69935 0.397908,0.27733 1.049032,0.30145 l 2.833591,0.12058 q 0.807875,0.0241 1.483114,0.2291 0.675239,0.19292 1.16961,0.56672 0.49437,0.36173 0.7717,0.90433 0.27733,0.53055 0.27733,1.24196 0,0.74759 -0.3135,1.42283 -0.31351,0.67523 -0.964629,1.18166 -0.639065,0.51849 -1.639866,0.80788 -1.0008,0.30144 -2.363335,0.30144 -1.314305,0 -2.242758,-0.22909 -0.916395,-0.21705 -1.507229,-0.6029 -0.590834,-0.38585 -0.856107,-0.92845 -0.265272,-0.53054 -0.265272,-1.15755 0,-0.39791 0.09646,-0.7717 0.09646,-0.3738 0.289389,-0.71142 0.204983,-0.33762 0.494371,-0.63906 0.301446,-0.31351 0.687296,-0.61495 -0.590833,-0.30145 -0.880222,-0.75964 -0.27733,-0.4582 -0.27733,-0.98875 0,-0.73553 0.301446,-1.3143 0.301446,-0.57878 0.747586,-1.03698 -0.373793,-0.44614 -0.590834,-1.0008 -0.217041,-0.56671 -0.217041,-1.36253 0,-0.92845 0.313504,-1.66398 0.313503,-0.73553 0.868164,-1.24196 0.55466,-0.50643 1.326362,-0.7717 0.783759,-0.27733 1.700155,-0.27733 0.494371,0 0.916395,0.0603 0.434082,0.0482 0.807875,0.14469 h 3.279728 q 0.20499,0 0.30145,0.20499 0.10852,0.19292 0.10852,0.60289 z m -3.110922,2.8577 q 0,-1.10932 -0.614949,-1.72427 -0.602892,-0.627 -1.724271,-0.627 -0.578776,0 -1.012858,0.19292 -0.422024,0.19293 -0.711412,0.53055 -0.277331,0.33762 -0.422025,0.78376 -0.132636,0.43408 -0.132636,0.91639 0,1.07315 0.602892,1.6881 0.61495,0.61495 1.712213,0.61495 0.590834,0 1.024916,-0.18087 0.434082,-0.19293 0.711412,-0.51849 0.289388,-0.33762 0.422024,-0.7717 0.144694,-0.43408 0.144694,-0.90434 z m 1.000801,8.59724 q 0,-0.69935 -0.578776,-1.07315 -0.566719,-0.38585 -1.543403,-0.40996 l -2.809476,-0.0965 q -0.385851,0.30145 -0.639065,0.57878 -0.241157,0.26527 -0.385851,0.50643 -0.144694,0.25321 -0.204983,0.49437 -0.04823,0.24116 -0.04823,0.49437 0,0.78376 0.795817,1.18167 0.795818,0.40997 2.218642,0.40997 0.904338,0 1.50723,-0.18087 0.614949,-0.16881 0.988742,-0.4582 0.373793,-0.28939 0.530545,-0.66318 0.16881,-0.37379 0.16881,-0.78376 z"
         style="font-size:24.69444847px;fill:#646464;fill-opacity:0.78431373;stroke-width:0.26458332"
         id="path835" />
      <path
         d="m 112.55042,179.33052 q 0,0.47025 -0.24116,0.67524 -0.2291,0.19292 -0.53054,0.19292 h -7.11413 q 0,0.90434 0.18087,1.62781 0.18087,0.72347 0.60289,1.24196 0.42203,0.51848 1.09727,0.79581 0.67523,0.27733 1.65192,0.27733 0.7717,0 1.37459,-0.12058 0.60289,-0.13263 1.03698,-0.28938 0.44614,-0.15676 0.72347,-0.27733 0.28938,-0.13264 0.43408,-0.13264 0.0844,0 0.14469,0.0482 0.0724,0.0362 0.10852,0.12058 0.0362,0.0844 0.0482,0.24116 0.0241,0.14469 0.0241,0.36173 0,0.15675 -0.0121,0.27733 -0.0121,0.10852 -0.0362,0.20498 -0.0121,0.0844 -0.0603,0.15676 -0.0362,0.0723 -0.10852,0.14469 -0.0603,0.0603 -0.38585,0.21704 -0.32556,0.1447 -0.84405,0.28939 -0.51849,0.14469 -1.20578,0.25321 -0.67524,0.12058 -1.44694,0.12058 -1.33842,0 -2.35128,-0.37379 -1.0008,-0.37379 -1.6881,-1.10932 -0.6873,-0.73553 -1.03697,-1.84485 -0.34968,-1.10932 -0.34968,-2.58038 0,-1.39871 0.36173,-2.50803 0.36174,-1.12138 1.03698,-1.89308 0.68729,-0.78376 1.65192,-1.19372 0.96463,-0.42203 2.15835,-0.42203 1.27813,0 2.17041,0.40997 0.90434,0.40997 1.48312,1.10932 0.57877,0.6873 0.84405,1.62781 0.27733,0.92845 0.27733,1.98954 z m -2.0016,-0.59084 q 0.0362,-1.56752 -0.69936,-2.4598 -0.72347,-0.89228 -2.15835,-0.89228 -0.73553,0 -1.29019,0.27733 -0.55466,0.27733 -0.92845,0.73553 -0.3738,0.4582 -0.57878,1.07315 -0.20498,0.60289 -0.2291,1.26607 z"
         style="font-size:24.69444847px;fill:#646464;fill-opacity:0.78431373;stroke-width:0.26458332"
         id="path837" />
    </g>
    <g
       aria-label="Available"
       style="font-style:normal;font-variant:normal;font-weight:normal;font-stretch:normal;font-size:50.79999924px;line-height:1.25;font-family:Calibri;-inkscape-font-specification:Calibri;letter-spacing:0px;word-spacing:0px;fill:#646464;fill-opacity:0.78431373;stroke:none;stroke-width:0.26458332"
       id="text4574">
      <path
         d="m 34.976333,290.89063 q 0.09646,0.26527 0.09646,0.43408 0.01206,0.15676 -0.0844,0.24116 -0.09646,0.0844 -0.325562,0.10852 -0.217041,0.0241 -0.590834,0.0241 -0.373793,0 -0.602892,-0.0241 -0.217041,-0.0121 -0.337619,-0.0482 -0.10852,-0.0482 -0.16881,-0.12058 -0.04823,-0.0724 -0.09646,-0.18087 l -1.33842,-3.79821 h -6.487115 l -1.27813,3.74998 q -0.03617,0.10852 -0.09646,0.19293 -0.06029,0.0723 -0.180867,0.13263 -0.108521,0.0482 -0.325562,0.0724 -0.204983,0.0241 -0.542602,0.0241 -0.349678,0 -0.578777,-0.0362 -0.217041,-0.0241 -0.313503,-0.10852 -0.08441,-0.0844 -0.08441,-0.24115 0.01206,-0.16881 0.10852,-0.43409 l 5.233101,-14.49351 q 0.04823,-0.13264 0.120578,-0.21704 0.08441,-0.0844 0.229099,-0.13264 0.156752,-0.0482 0.38585,-0.0603 0.241157,-0.0241 0.602892,-0.0241 0.385851,0 0.639065,0.0241 0.253215,0.0121 0.409967,0.0603 0.156752,0.0482 0.241156,0.14469 0.08441,0.0844 0.132637,0.21704 z m -6.716214,-12.79336 h -0.01206 l -2.688897,7.7773 h 5.426026 z"
         style="font-size:24.69444466px;fill:#646464;fill-opacity:0.78431373;stroke-width:0.26458332"
         id="path840" />
      <path
         d="m 45.804268,280.44855 q 0,0.0482 -0.01206,0.10852 0,0.0482 -0.01206,0.10852 -0.01206,0.0603 -0.03617,0.13263 -0.01206,0.0723 -0.03617,0.15676 l -3.701755,10.30944 q -0.04823,0.13264 -0.132636,0.21705 -0.07235,0.0844 -0.229099,0.13263 -0.156752,0.0482 -0.397908,0.0603 -0.241157,0.0241 -0.602892,0.0241 -0.361735,0 -0.602892,-0.0241 -0.241157,-0.0241 -0.397908,-0.0724 -0.144694,-0.0482 -0.229099,-0.13263 -0.0844,-0.0844 -0.132636,-0.20499 l -3.689698,-10.30944 q -0.04823,-0.1447 -0.0844,-0.25322 -0.02412,-0.10852 -0.03617,-0.15675 0,-0.0603 0,-0.0965 0,-0.0965 0.04823,-0.16881 0.04823,-0.0724 0.156752,-0.10852 0.120579,-0.0482 0.301446,-0.0603 0.192925,-0.0121 0.470256,-0.0121 0.349677,0 0.55466,0.0241 0.217041,0.012 0.325561,0.0603 0.120579,0.0482 0.16881,0.12058 0.06029,0.0723 0.108521,0.18087 l 3.06269,8.94691 0.04823,0.1447 0.03617,-0.1447 3.026517,-8.94691 q 0.02412,-0.10852 0.08441,-0.18087 0.06029,-0.0723 0.168809,-0.12058 0.120579,-0.0482 0.313504,-0.0603 0.204983,-0.0241 0.530545,-0.0241 0.27733,0 0.458197,0.0121 0.180868,0.0121 0.277331,0.0603 0.10852,0.0482 0.144694,0.12058 0.04823,0.0603 0.04823,0.15675 z"
         style="font-size:24.69444466px;fill:#646464;fill-opacity:0.78431373;stroke-width:0.26458332"
         id="path842" />
      <path
         d="m 55.884618,291.33677 q 0,0.1447 -0.09646,0.21704 -0.09646,0.0724 -0.265272,0.10852 -0.16881,0.0362 -0.494372,0.0362 -0.313503,0 -0.506429,-0.0362 -0.180867,-0.0362 -0.265272,-0.10852 -0.08441,-0.0723 -0.08441,-0.21704 v -1.0852 q -0.711412,0.75964 -1.591634,1.18166 -0.868164,0.42203 -1.844849,0.42203 -0.856106,0 -1.55546,-0.2291 -0.687297,-0.21704 -1.181668,-0.63907 -0.482313,-0.42202 -0.759644,-1.03697 -0.265272,-0.61495 -0.265272,-1.39871 0,-0.91639 0.373793,-1.59163 0.373793,-0.67524 1.073147,-1.12138 0.699355,-0.44614 1.712213,-0.66318 1.012858,-0.2291 2.27893,-0.2291 h 1.495172 v -0.84405 q 0,-0.62701 -0.132636,-1.10932 -0.132637,-0.48231 -0.434082,-0.79582 -0.289388,-0.32556 -0.759644,-0.48231 -0.470256,-0.16881 -1.157552,-0.16881 -0.735528,0 -1.326362,0.18087 -0.578776,0.16881 -1.024916,0.38585 -0.434082,0.20498 -0.735528,0.38585 -0.289388,0.16881 -0.434082,0.16881 -0.09646,0 -0.168809,-0.0482 -0.07235,-0.0482 -0.132637,-0.1447 -0.04823,-0.0965 -0.07235,-0.24115 -0.02411,-0.15676 -0.02411,-0.33762 0,-0.30145 0.03617,-0.47026 0.04823,-0.18087 0.204983,-0.33762 0.16881,-0.15675 0.566719,-0.36173 0.397908,-0.21704 0.916395,-0.38585 0.518487,-0.18087 1.133436,-0.28939 0.61495,-0.12058 1.241957,-0.12058 1.16961,0 1.989543,0.26527 0.819933,0.26528 1.326362,0.78376 0.506429,0.50643 0.735528,1.26607 0.229099,0.75965 0.229099,1.77251 z M 53.907133,286.381 h -1.700155 q -0.819933,0 -1.422824,0.1447 -0.602892,0.13263 -1.000801,0.40996 -0.397908,0.26527 -0.590833,0.65113 -0.180868,0.37379 -0.180868,0.86816 0,0.84405 0.530545,1.35048 0.542602,0.49437 1.507229,0.49437 0.783759,0 1.44694,-0.39791 0.675239,-0.39791 1.410767,-1.21784 z"
         style="font-size:24.69444466px;fill:#646464;fill-opacity:0.78431373;stroke-width:0.26458332"
         id="path844" />
      <path
         d="m 61.515626,291.32471 q 0,0.0965 -0.04823,0.16881 -0.04823,0.0603 -0.156752,0.10852 -0.10852,0.0482 -0.301445,0.0724 -0.192926,0.0241 -0.494372,0.0241 -0.289388,0 -0.482313,-0.0241 -0.192925,-0.0241 -0.313504,-0.0724 -0.10852,-0.0482 -0.156751,-0.10852 -0.03617,-0.0723 -0.03617,-0.16881 v -10.85205 q 0,-0.0844 0.03617,-0.15675 0.04823,-0.0723 0.156751,-0.12058 0.120579,-0.0482 0.313504,-0.0723 0.192925,-0.0241 0.482313,-0.0241 0.301446,0 0.494372,0.0241 0.192925,0.0241 0.301445,0.0723 0.108521,0.0482 0.156752,0.12058 0.04823,0.0724 0.04823,0.15675 z m 0.229099,-14.51763 q 0,0.69936 -0.265273,0.95257 -0.265272,0.25321 -0.976684,0.25321 -0.699355,0 -0.964627,-0.24115 -0.253215,-0.25322 -0.253215,-0.94051 0,-0.69936 0.265273,-0.95257 0.265272,-0.25322 0.976684,-0.25322 0.699355,0 0.952569,0.25322 0.265273,0.24115 0.265273,0.92845 z"
         style="font-size:24.69444466px;fill:#646464;fill-opacity:0.78431373;stroke-width:0.26458332"
         id="path846" />
      <path
         d="m 67.206925,291.32471 q 0,0.0965 -0.04823,0.16881 -0.04823,0.0603 -0.156752,0.10852 -0.108521,0.0482 -0.301446,0.0724 -0.192925,0.0241 -0.494371,0.0241 -0.289388,0 -0.482314,-0.0241 -0.192925,-0.0241 -0.313503,-0.0724 -0.108521,-0.0482 -0.156752,-0.10852 -0.03617,-0.0723 -0.03617,-0.16881 v -16.10926 q 0,-0.0965 0.03617,-0.16881 0.04823,-0.0724 0.156752,-0.12058 0.120578,-0.0482 0.313503,-0.0724 0.192926,-0.0241 0.482314,-0.0241 0.301446,0 0.494371,0.0241 0.192925,0.0241 0.301446,0.0724 0.10852,0.0482 0.156752,0.12058 0.04823,0.0723 0.04823,0.16881 z"
         style="font-size:24.69444466px;fill:#646464;fill-opacity:0.78431373;stroke-width:0.26458332"
         id="path848" />
      <path
         d="m 79.083894,291.33677 q 0,0.1447 -0.09646,0.21704 -0.09646,0.0724 -0.265272,0.10852 -0.16881,0.0362 -0.494372,0.0362 -0.313503,0 -0.506429,-0.0362 -0.180867,-0.0362 -0.265272,-0.10852 -0.08441,-0.0723 -0.08441,-0.21704 v -1.0852 q -0.711412,0.75964 -1.591634,1.18166 -0.868164,0.42203 -1.844849,0.42203 -0.856106,0 -1.55546,-0.2291 -0.687297,-0.21704 -1.181668,-0.63907 -0.482313,-0.42202 -0.759644,-1.03697 -0.265272,-0.61495 -0.265272,-1.39871 0,-0.91639 0.373793,-1.59163 0.373793,-0.67524 1.073147,-1.12138 0.699354,-0.44614 1.712213,-0.66318 1.012858,-0.2291 2.27893,-0.2291 h 1.495172 v -0.84405 q 0,-0.62701 -0.132636,-1.10932 -0.132637,-0.48231 -0.434082,-0.79582 -0.289389,-0.32556 -0.759644,-0.48231 -0.470256,-0.16881 -1.157552,-0.16881 -0.735528,0 -1.326362,0.18087 -0.578776,0.16881 -1.024916,0.38585 -0.434082,0.20498 -0.735528,0.38585 -0.289388,0.16881 -0.434082,0.16881 -0.09646,0 -0.168809,-0.0482 -0.07235,-0.0482 -0.132637,-0.1447 -0.04823,-0.0965 -0.07235,-0.24115 -0.02411,-0.15676 -0.02411,-0.33762 0,-0.30145 0.03617,-0.47026 0.04823,-0.18087 0.204983,-0.33762 0.16881,-0.15675 0.566719,-0.36173 0.397908,-0.21704 0.916395,-0.38585 0.518487,-0.18087 1.133436,-0.28939 0.61495,-0.12058 1.241957,-0.12058 1.16961,0 1.989543,0.26527 0.819933,0.26528 1.326362,0.78376 0.506429,0.50643 0.735528,1.26607 0.229099,0.75965 0.229099,1.77251 z M 77.106409,286.381 h -1.700155 q -0.819933,0 -1.422824,0.1447 -0.602892,0.13263 -1.000801,0.40996 -0.397908,0.26527 -0.590833,0.65113 -0.180868,0.37379 -0.180868,0.86816 0,0.84405 0.530545,1.35048 0.542602,0.49437 1.507229,0.49437 0.783759,0 1.44694,-0.39791 0.675239,-0.39791 1.410767,-1.21784 z"
         style="font-size:24.69444466px;fill:#646464;fill-opacity:0.78431373;stroke-width:0.26458332"
         id="path850" />
      <path
         d="m 92.709246,285.75399 q 0,1.41077 -0.313504,2.54421 -0.301446,1.12138 -0.904337,1.91719 -0.590834,0.79582 -1.458998,1.21784 -0.868165,0.42203 -1.989543,0.42203 -0.518487,0 -0.964627,-0.10852 -0.434082,-0.0965 -0.856106,-0.32556 -0.422024,-0.2291 -0.844048,-0.57878 -0.422025,-0.34968 -0.89228,-0.84405 v 1.32636 q 0,0.0965 -0.04823,0.16881 -0.04823,0.0724 -0.156751,0.12058 -0.108521,0.0362 -0.277331,0.0603 -0.156751,0.0241 -0.409966,0.0241 -0.241157,0 -0.409966,-0.0241 -0.16881,-0.0241 -0.277331,-0.0603 -0.10852,-0.0482 -0.144694,-0.12058 -0.03617,-0.0723 -0.03617,-0.16881 v -16.10926 q 0,-0.0965 0.03617,-0.16881 0.04823,-0.0724 0.156752,-0.12058 0.120579,-0.0482 0.313504,-0.0724 0.192925,-0.0241 0.482313,-0.0241 0.301446,0 0.494372,0.0241 0.192925,0.0241 0.301445,0.0724 0.108521,0.0482 0.156752,0.12058 0.04823,0.0723 0.04823,0.16881 v 6.49917 q 0.482313,-0.49437 0.928453,-0.83199 0.458198,-0.33762 0.89228,-0.5426 0.434082,-0.21704 0.868164,-0.31351 0.434082,-0.0965 0.916395,-0.0965 1.181668,0 2.013658,0.47026 0.844049,0.47025 1.362536,1.26607 0.530544,0.78376 0.771701,1.84485 0.241157,1.06109 0.241157,2.24275 z m -2.098063,0.2291 q 0,-0.83199 -0.132637,-1.61575 -0.120578,-0.78376 -0.434082,-1.38665 -0.313503,-0.60289 -0.83199,-0.96462 -0.518487,-0.3738 -1.290188,-0.3738 -0.385851,0 -0.759644,0.10852 -0.373793,0.10852 -0.759644,0.36174 -0.38585,0.25321 -0.807874,0.65112 -0.409967,0.39791 -0.880222,1.0008 v 4.32876 q 0.819932,1.0008 1.567518,1.53135 0.747586,0.51849 1.555461,0.51849 0.747585,0 1.27813,-0.36174 0.530545,-0.36173 0.856106,-0.95257 0.33762,-0.60289 0.482314,-1.33842 0.156752,-0.74758 0.156752,-1.50723 z"
         style="font-size:24.69444466px;fill:#646464;fill-opacity:0.78431373;stroke-width:0.26458332"
         id="path852" />
      <path
         d="m 97.689133,291.32471 q 0,0.0965 -0.04823,0.16881 -0.04823,0.0603 -0.156752,0.10852 -0.10852,0.0482 -0.301446,0.0724 -0.192925,0.0241 -0.494371,0.0241 -0.289388,0 -0.482313,-0.0241 -0.192926,-0.0241 -0.313504,-0.0724 -0.10852,-0.0482 -0.156752,-0.10852 -0.03617,-0.0723 -0.03617,-0.16881 v -16.10926 q 0,-0.0965 0.03617,-0.16881 0.04823,-0.0724 0.156752,-0.12058 0.120578,-0.0482 0.313504,-0.0724 0.192925,-0.0241 0.482313,-0.0241 0.301446,0 0.494371,0.0241 0.192926,0.0241 0.301446,0.0724 0.108521,0.0482 0.156752,0.12058 0.04823,0.0723 0.04823,0.16881 z"
         style="font-size:24.69444466px;fill:#646464;fill-opacity:0.78431373;stroke-width:0.26458332"
         id="path854" />
      <path
         d="m 110.6513,285.42843 q 0,0.47026 -0.24116,0.67524 -0.2291,0.19293 -0.53054,0.19293 h -7.11412 q 0,0.90433 0.18086,1.6278 0.18087,0.72347 0.60289,1.24196 0.42203,0.51849 1.09727,0.79582 0.67524,0.27733 1.65192,0.27733 0.7717,0 1.37459,-0.12058 0.6029,-0.13264 1.03698,-0.28939 0.44614,-0.15675 0.72347,-0.27733 0.28939,-0.13263 0.43408,-0.13263 0.0844,0 0.14469,0.0482 0.0724,0.0362 0.10852,0.12058 0.0362,0.0844 0.0482,0.24115 0.0241,0.1447 0.0241,0.36174 0,0.15675 -0.0121,0.27733 -0.0121,0.10852 -0.0362,0.20498 -0.0121,0.0844 -0.0603,0.15675 -0.0362,0.0724 -0.10852,0.1447 -0.0603,0.0603 -0.38585,0.21704 -0.32556,0.14469 -0.84405,0.28939 -0.51849,0.14469 -1.20578,0.25321 -0.67524,0.12058 -1.44694,0.12058 -1.33842,0 -2.35128,-0.37379 -1.0008,-0.3738 -1.6881,-1.10933 -0.68729,-0.73552 -1.03697,-1.84484 -0.34968,-1.10932 -0.34968,-2.58038 0,-1.39871 0.36174,-2.50803 0.36173,-1.12138 1.03697,-1.89308 0.6873,-0.78376 1.65192,-1.19373 0.96463,-0.42202 2.15836,-0.42202 1.27813,0 2.17041,0.40997 0.90433,0.40996 1.48311,1.10932 0.57878,0.68729 0.84405,1.62781 0.27733,0.92845 0.27733,1.98954 z m -2.0016,-0.59083 q 0.0362,-1.56752 -0.69936,-2.4598 -0.72347,-0.89228 -2.15835,-0.89228 -0.73553,0 -1.29019,0.27733 -0.55466,0.27733 -0.92845,0.73553 -0.37379,0.4582 -0.57878,1.07315 -0.20498,0.60289 -0.22909,1.26607 z"
         style="font-size:24.69444466px;fill:#646464;fill-opacity:0.78431373;stroke-width:0.26458332"
         id="path856" />
    </g>
  </g>
</svg>
